<svg xmlns="http://www.w3.org/2000/svg" viewBox="0 0 1080 1080"><path d="m827 413.6c0-4.4-1.5-8.6-4.3-12l-206.3-252.2c-5-6.1-13.3-8.5-20.8-6l-208.3 69.1c-3.4 1.1-6.5 3.2-8.8 6.1l-150.7 184.7c-2.8 3.4-4.3 7.7-4.3 12.1v346.6c0 6.8 3.6 13.1 9.5 16.5l285.7 166.5c3 1.7 6.3 2.6 9.6 2.6 3 0 6-.7 8.7-2.1l281.1-144.1c6.4-3.3 10.4-9.9 10.4-17.1z" fill="#f4f4f2"></path><path d="m827 413.6c0-4.4-1.5-8.6-4.3-12l-206.3-252.2c-5-6.1-13.3-8.5-20.8-6l-208.3 69.1c-3.4 1.1-6.5 3.2-8.8 6.1l-150.7 184.7c-2.8 3.4-4.3 7.7-4.3 12.1v346.6c0 6.8 3.6 13.1 9.5 16.5l285.7 166.5c3 1.7 6.3 2.6 9.6 2.6 3 0 6-.7 8.7-2.1l281.1-144.1c6.4-3.3 10.4-9.9 10.4-17.1zm-332 64.2 143.2 75.9 78 185.4-189.4 161.3-172.3-211.8 52.2-228.3zm223.8-35.9-17.3-84.6 8.3-33.5 72.3 88.4zm-38.4-65.8 16.5 80.6-52.7 72.5-119.8-63.5zm-342.1 273.4-76.6-216.8v-1.1l120.9 23.9zm-57.2-239 79.5-37.9 18.6 57.3zm76.1-63.3-56.2 26.8 67.5-82.8zm-31.2 341-64.3 45.4v-227.5zm13.3 20.5 135.5 166.5-203.4-118.5zm393.3 48.7 43 22.8-175.7 90.1zm8-23.5-78.8-187.3 56.2-77.3 70.8-33.2 1.3 324.2zm-50.2-433.6-12 48.9-181.4 104.1-90.4-17.9-26.1-80.5 21.2-104.4 2.9-3.5 190.5-63.2z" fill="#525645"></path></svg>